<svg id="Layer_1" data-name="Layer 1" xmlns="http://www.w3.org/2000/svg" viewBox="0 0 532 80"><defs><style>.cls-1,.cls-3,.cls-4{fill:none;stroke:#3cbdb1;stroke-miterlimit:10;}.cls-1{stroke-width:1.45px;}.cls-2{fill:#3cbdb1;}.cls-4{stroke-width:0.86px;}.cls-5{fill:#fff;}</style></defs><title>Artboard 11</title><g id="_Group_" data-name="&lt;Group&gt;"><path id="_Path_" data-name="&lt;Path&gt;" class="cls-1" d="M49.15,10s-.18,22.27,0,29.69c.19,7.95,4.33,24.29,21.06,24.29H287"/><path id="_Path_2" data-name="&lt;Path&gt;" class="cls-1" d="M524.77,10s.18,22.27,0,29.69c-.19,7.95-4.33,24.29-21.06,24.29H287"/><line id="_Path_3" data-name="&lt;Path&gt;" class="cls-1" x1="299.41" y1="67.84" x2="492.59" y2="67.84"/><path id="_Path_4" data-name="&lt;Path&gt;" class="cls-1" d="M332.72,67.84s1.61,3.59,4,4.1h35.17"/><path id="_Path_5" data-name="&lt;Path&gt;" class="cls-1" d="M411.12,67.84s-1.61,3.59-4,4.1H371.92"/><path id="_Path_6" data-name="&lt;Path&gt;" class="cls-1" d="M49.15,39.66h-14c-.09,0-3.31,0-3.38.07-.59.34,0,13.54,0,13.54"/><circle id="_Path_7" data-name="&lt;Path&gt;" class="cls-2" cx="49.15" cy="9.97" r="2.89"/><circle id="_Path_8" data-name="&lt;Path&gt;" class="cls-2" cx="524.85" cy="9.97" r="2.89"/><circle id="_Path_9" data-name="&lt;Path&gt;" class="cls-2" cx="31.76" cy="53.27" r="2.89"/><path id="_Path_10" data-name="&lt;Path&gt;" class="cls-1" d="M31.76,53.27s2.07,5.1,6,6h2.68V75.45"/><polygon id="_Path_11" data-name="&lt;Path&gt;" class="cls-2" points="333.85 72.49 331.37 72.49 327.74 69.05 330.22 69.05 333.85 72.49"/><polygon id="_Path_12" data-name="&lt;Path&gt;" class="cls-2" points="333.85 72.49 331.37 72.49 327.74 69.05 330.22 69.05 333.85 72.49"/><polygon id="_Path_13" data-name="&lt;Path&gt;" class="cls-2" points="329.01 72.49 326.53 72.49 322.89 69.05 325.38 69.05 329.01 72.49"/><polygon id="_Path_14" data-name="&lt;Path&gt;" class="cls-2" points="324.16 72.49 321.68 72.49 318.05 69.05 320.53 69.05 324.16 72.49"/><polygon id="_Path_15" data-name="&lt;Path&gt;" class="cls-2" points="319.31 72.49 316.83 72.49 313.2 69.05 315.68 69.05 319.31 72.49"/><polygon id="_Path_16" data-name="&lt;Path&gt;" class="cls-2" points="314.47 72.49 311.99 72.49 308.35 69.05 310.83 69.05 314.47 72.49"/><circle id="_Path_17" data-name="&lt;Path&gt;" class="cls-2" cx="40.45" cy="75.45" r="2.89"/><circle id="_Path_18" data-name="&lt;Path&gt;" class="cls-2" cx="40.45" cy="59.05" r="2.89"/><circle id="_Path_19" data-name="&lt;Path&gt;" class="cls-2" cx="297.8" cy="67.84" r="1.67"/><circle id="_Path_20" data-name="&lt;Path&gt;" class="cls-1" cx="289.47" cy="67.84" r="1.67"/><circle id="_Path_21" data-name="&lt;Path&gt;" class="cls-2" cx="282.72" cy="68.08" r="0.41"/><circle id="_Path_22" data-name="&lt;Path&gt;" class="cls-2" cx="279.73" cy="68.08" r="0.41"/><circle id="_Path_23" data-name="&lt;Path&gt;" class="cls-2" cx="276.73" cy="68.08" r="0.41"/><circle id="_Path_24" data-name="&lt;Path&gt;" class="cls-2" cx="273.74" cy="68.08" r="0.41"/><circle id="_Path_25" data-name="&lt;Path&gt;" class="cls-2" cx="270.74" cy="68.08" r="0.41"/><circle id="_Path_26" data-name="&lt;Path&gt;" class="cls-2" cx="267.75" cy="68.08" r="0.41"/><circle id="_Path_27" data-name="&lt;Path&gt;" class="cls-2" cx="264.76" cy="68.08" r="0.41"/><circle id="_Path_28" data-name="&lt;Path&gt;" class="cls-2" cx="261.76" cy="68.08" r="0.41"/><circle id="_Path_29" data-name="&lt;Path&gt;" class="cls-2" cx="258.77" cy="68.08" r="0.41"/><circle id="_Path_30" data-name="&lt;Path&gt;" class="cls-2" cx="255.78" cy="68.08" r="0.41"/><circle id="_Path_31" data-name="&lt;Path&gt;" class="cls-2" cx="252.78" cy="68.08" r="0.41"/><circle id="_Path_32" data-name="&lt;Path&gt;" class="cls-2" cx="249.79" cy="68.08" r="0.41"/><circle id="_Path_33" data-name="&lt;Path&gt;" class="cls-2" cx="246.8" cy="68.08" r="0.41"/><circle id="_Path_34" data-name="&lt;Path&gt;" class="cls-2" cx="243.8" cy="68.08" r="0.41"/><circle id="_Path_35" data-name="&lt;Path&gt;" class="cls-2" cx="240.81" cy="68.08" r="0.41"/><circle id="_Path_36" data-name="&lt;Path&gt;" class="cls-2" cx="237.82" cy="68.08" r="0.41"/><circle id="_Path_37" data-name="&lt;Path&gt;" class="cls-2" cx="234.82" cy="68.08" r="0.41"/></g><ellipse id="_Path_38" data-name="&lt;Path&gt;" class="cls-3" cx="20.29" cy="39.66" rx="2.34" ry="2.48"/><ellipse id="_Path_39" data-name="&lt;Path&gt;" class="cls-2" cx="31.79" cy="39.66" rx="2.34" ry="2.48"/><ellipse id="_Path_40" data-name="&lt;Path&gt;" class="cls-3" cx="8.79" cy="39.66" rx="2.34" ry="2.48"/><line id="_Path_41" data-name="&lt;Path&gt;" class="cls-4" x1="412.57" y1="55.49" x2="201.22" y2="55.49"/><circle id="_Path_42" data-name="&lt;Path&gt;" class="cls-2" cx="201.22" cy="55.49" r="1.82"/><polygon id="_Path_43" data-name="&lt;Path&gt;" class="cls-5" points="506.67 56.48 415.35 56.48 421.85 49.56 511.35 49.56 506.67 56.48"/><polygon id="_Path_44" data-name="&lt;Path&gt;" class="cls-2" points="415.22 53.33 393.7 53.33 397.6 49.45 419.05 49.45 415.22 53.33"/><polygon id="_Path_45" data-name="&lt;Path&gt;" class="cls-2" points="391.68 53.33 377.67 53.33 381.64 49.45 395.51 49.45 391.68 53.33"/><polygon id="_Path_46" data-name="&lt;Path&gt;" class="cls-2" points="375.57 53.33 365.9 53.33 370 49.23 379.98 49.23 375.57 53.33"/><polygon id="_Path_47" data-name="&lt;Path&gt;" class="cls-2" points="363.59 53.33 359.56 53.33 363.63 49.26 367.91 49.26 363.59 53.33"/><polygon id="_Path_48" data-name="&lt;Path&gt;" class="cls-2" points="357.28 53.33 354.72 53.33 359.07 49.23 361.49 49.23 357.28 53.33"/></svg>