<svg id="Layer_1" data-name="Layer 1" xmlns="http://www.w3.org/2000/svg" viewBox="0 0 526 121"><defs><style>.cls-1{font-size:27px;font-family:Octapost-NBP, Octapost NBP;}.cls-1,.cls-7{fill:#3cbdb1;}.cls-2{letter-spacing:0.01em;}.cls-3{letter-spacing:0.03em;}.cls-4{letter-spacing:-0.01em;}.cls-5{letter-spacing:-0.04em;}.cls-11,.cls-6,.cls-8,.cls-9{fill:none;stroke-miterlimit:10;}.cls-6,.cls-8{stroke:#3cbdb1;}.cls-8{stroke-width:1.45px;}.cls-9{stroke:#fff;}.cls-11,.cls-9{stroke-width:3px;}.cls-10{fill:#fff;}.cls-11{stroke:#f89a1c;}</style></defs><title>Artboard 8</title><text class="cls-1" transform="translate(103.07 77.93)"><tspan class="cls-2">E</tspan><tspan x="13.53" y="0">VEN</tspan><tspan class="cls-3" x="59.64" y="0">T</tspan><tspan class="cls-4" x="73.98" y="0">’</tspan><tspan x="79.35" y="0">S</tspan><tspan class="cls-5" x="92.66" y="0"> </tspan><tspan x="97.41" y="0">VISION &amp; MISSION</tspan></text><polyline id="_Path_" data-name="&lt;Path&gt;" class="cls-6" points="340.86 23.32 423.37 23.32 439.15 8.51 465.11 8.51"/><ellipse id="_Path_2" data-name="&lt;Path&gt;" class="cls-7" cx="340.39" cy="23.74" rx="2.34" ry="2.48"/><polyline id="_Path_3" data-name="&lt;Path&gt;" class="cls-8" points="351.23 19.32 421.76 19.32 438.05 4.18 466.26 4.18 471.83 8.51 495.56 8.51"/><polyline id="_Path_4" data-name="&lt;Path&gt;" class="cls-8" points="358.78 19.32 364.74 11.75 404.08 11.75 411.83 19.32"/><path id="_Path_5" data-name="&lt;Path&gt;" class="cls-8" d="M470,110.26h10.41a69.71,69.71,0,0,0,12.25-21.51"/><path id="_Path_6" data-name="&lt;Path&gt;" class="cls-9" d="M338,31.6H480.38S495,47.26,495.56,69.87"/><path id="_Path_7" data-name="&lt;Path&gt;" class="cls-9" d="M35.74,31.6H23.31s-34.19,36.61,0,78.66H33.71"/><line id="_Path_8" data-name="&lt;Path&gt;" class="cls-8" x1="461.44" y1="110.26" x2="245.82" y2="110.26"/><ellipse id="_Path_9" data-name="&lt;Path&gt;" class="cls-8" cx="245.82" cy="110.26" rx="1.42" ry="1.5"/><polyline id="_Path_10" data-name="&lt;Path&gt;" class="cls-6" points="322.39 31.6 334.93 23.74 334.93 13.01 224.75 13.01 210.12 27.54 44.1 27.54"/><polyline id="_Path_11" data-name="&lt;Path&gt;" class="cls-8" points="218.48 11.75 207.13 23.74 42.3 23.74 35.74 31.6"/><circle id="_Path_12" data-name="&lt;Path&gt;" class="cls-10" cx="495.56" cy="71.55" r="4.6"/><circle id="_Path_13" data-name="&lt;Path&gt;" class="cls-7" cx="469.97" cy="110.26" r="2.92"/><ellipse id="_Path_14" data-name="&lt;Path&gt;" class="cls-7" cx="495.56" cy="8.51" rx="2.34" ry="2.48"/><ellipse id="_Path_15" data-name="&lt;Path&gt;" class="cls-6" cx="507.06" cy="8.51" rx="2.34" ry="2.48"/><ellipse id="_Path_16" data-name="&lt;Path&gt;" class="cls-7" cx="495.56" cy="8.51" rx="2.34" ry="2.48"/><ellipse id="_Path_17" data-name="&lt;Path&gt;" class="cls-6" cx="518.56" cy="8.51" rx="2.34" ry="2.48"/><line id="_Path_18" data-name="&lt;Path&gt;" class="cls-11" x1="230.78" y1="13.01" x2="324.27" y2="13.01"/></svg>